<?xml version="1.0" encoding="utf-8"?>
<!-- Generator: Adobe Illustrator 16.0.1, SVG Export Plug-In . SVG Version: 6.00 Build 0)  -->
<!DOCTYPE svg PUBLIC "-//W3C//DTD SVG 1.1//EN" "http://www.w3.org/Graphics/SVG/1.1/DTD/svg11.dtd">
<svg version="1.1" id="Layer_1" xmlns="http://www.w3.org/2000/svg" xmlns:xlink="http://www.w3.org/1999/xlink" x="0px" y="0px"
	 width="942px" height="402px" viewBox="0 0 942 402" enable-background="new 0 0 942 402" xml:space="preserve">
<defs>
	<filter id="Adobe_OpacityMaskFilter" filterUnits="userSpaceOnUse" x="0.208" y="0.114" width="401.769" height="401.772">
		<feColorMatrix  type="matrix" values="1 0 0 0 0  0 1 0 0 0  0 0 1 0 0  0 0 0 1 0"/>
	</filter>
</defs>
<mask maskUnits="userSpaceOnUse" x="0.208" y="0.114" width="401.769" height="401.772" id="SVGID_1_">
	<g filter="url(#Adobe_OpacityMaskFilter)">
		<rect x="0.212" y="0.114" width="401.765" height="401.758"/>
		<g enable-background="new    ">
			<g>
				<defs>
					<path id="SVGID_2_" d="M0.212,186.03v33.108c7.606,93.503,79.06,168.979,170.685,182.748h60.387
						c91.684-13.779,163.122-89.289,170.684-182.854v-32.904C393.605,82.509,306.874,1.03,201.084,1.03
						C95.381,1.03,8.644,82.464,0.212,186.03"/>
				</defs>
				<clipPath id="SVGID_3_">
					<use xlink:href="#SVGID_2_"  overflow="visible"/>
				</clipPath>
				
					<radialGradient id="SVGID_4_" cx="78.5244" cy="487.7275" r="9.3191" gradientTransform="matrix(21.626 0 0 -21.626 -1497.0625 10750.2344)" gradientUnits="userSpaceOnUse">
					<stop  offset="0" style="stop-color:#FFFFFF"/>
					<stop  offset="0.6593" style="stop-color:#FFFFFF"/>
					<stop  offset="0.6668" style="stop-color:#EAE8E8"/>
					<stop  offset="0.7123" style="stop-color:#A39E9E"/>
					<stop  offset="0.7589" style="stop-color:#726B6B"/>
					<stop  offset="0.8057" style="stop-color:#514A4A"/>
					<stop  offset="0.8529" style="stop-color:#3B3435"/>
					<stop  offset="0.9006" style="stop-color:#2C2626"/>
					<stop  offset="0.9492" style="stop-color:#221C1D"/>
					<stop  offset="1" style="stop-color:#1F191A"/>
				</radialGradient>
				<rect x="0.212" y="1.03" clip-path="url(#SVGID_3_)" fill="url(#SVGID_4_)" width="401.755" height="400.856"/>
			</g>
		</g>
	</g>
</mask>
<g mask="url(#SVGID_1_)">
	<g>
		<defs>
			<rect id="SVGID_5_" x="0.208" y="0.114" width="401.763" height="401.772"/>
		</defs>
		<clipPath id="SVGID_6_">
			<use xlink:href="#SVGID_5_"  overflow="visible"/>
		</clipPath>
		<g clip-path="url(#SVGID_6_)">
			<defs>
				<rect id="SVGID_7_" x="0.212" y="0.114" width="401.765" height="401.772"/>
			</defs>
			<clipPath id="SVGID_8_">
				<use xlink:href="#SVGID_7_"  overflow="visible"/>
			</clipPath>
			<path clip-path="url(#SVGID_8_)" fill="#FFFFFF" d="M401.971,200.995c0,110.927-89.934,200.892-200.882,200.892
				c-110.946,0-200.881-89.965-200.881-200.892C0.208,90.054,90.143,0.114,201.089,0.114
				C312.037,0.114,401.971,90.054,401.971,200.995"/>
		</g>
	</g>
</g>
<defs>
	<filter id="Adobe_OpacityMaskFilter_1_" filterUnits="userSpaceOnUse" x="49.418" y="52.609" width="298.428" height="298.419">
		<feColorMatrix  type="matrix" values="1 0 0 0 0  0 1 0 0 0  0 0 1 0 0  0 0 0 1 0"/>
	</filter>
</defs>
<mask maskUnits="userSpaceOnUse" x="49.418" y="52.609" width="298.428" height="298.419" id="SVGID_9_">
	<g filter="url(#Adobe_OpacityMaskFilter_1_)">
		<rect x="49.43" y="52.609" width="298.416" height="298.419"/>
		<g enable-background="new    ">
			<g>
				<defs>
					<path id="SVGID_10_" d="M53.482,202.99c0,80.177,64.99,145.163,145.138,145.163c80.172,0,145.167-64.986,145.167-145.163
						c0-80.164-64.995-145.147-145.167-145.147C118.473,57.843,53.482,122.826,53.482,202.99"/>
				</defs>
				<clipPath id="SVGID_11_">
					<use xlink:href="#SVGID_10_"  overflow="visible"/>
				</clipPath>
				
					<radialGradient id="SVGID_12_" cx="79.3794" cy="483.3457" r="9.3196" gradientTransform="matrix(15.5747 0 0 -15.5747 -1037.6797 7730.9453)" gradientUnits="userSpaceOnUse">
					<stop  offset="0" style="stop-color:#FFFFFF"/>
					<stop  offset="0.9451" style="stop-color:#FFFFFF"/>
					<stop  offset="0.9454" style="stop-color:#F5F4F4"/>
					<stop  offset="0.9502" style="stop-color:#B0ABAB"/>
					<stop  offset="0.9554" style="stop-color:#807979"/>
					<stop  offset="0.9608" style="stop-color:#5D5656"/>
					<stop  offset="0.9666" style="stop-color:#463F3F"/>
					<stop  offset="0.9728" style="stop-color:#352E2F"/>
					<stop  offset="0.9797" style="stop-color:#292323"/>
					<stop  offset="0.9878" style="stop-color:#211B1C"/>
					<stop  offset="1" style="stop-color:#1F191A"/>
				</radialGradient>
				<rect x="53.482" y="57.843" clip-path="url(#SVGID_11_)" fill="url(#SVGID_12_)" width="290.3" height="290.311"/>
			</g>
		</g>
	</g>
</mask>
<g mask="url(#SVGID_9_)">
	<g>
		<defs>
			<rect id="SVGID_13_" x="49.423" y="52.609" width="298.419" height="298.419"/>
		</defs>
		<clipPath id="SVGID_14_">
			<use xlink:href="#SVGID_13_"  overflow="visible"/>
		</clipPath>
		<g clip-path="url(#SVGID_14_)">
			<defs>
				<rect id="SVGID_15_" x="49.43" y="52.609" width="298.416" height="298.419"/>
			</defs>
			<clipPath id="SVGID_16_">
				<use xlink:href="#SVGID_15_"  overflow="visible"/>
			</clipPath>
			<path clip-path="url(#SVGID_16_)" fill="#FFFFFF" d="M347.835,201.82c0,82.384-66.796,149.208-149.212,149.208
				c-82.397,0-149.205-66.824-149.205-149.208c0-82.414,66.808-149.211,149.205-149.211
				C281.039,52.609,347.835,119.406,347.835,201.82"/>
		</g>
	</g>
</g>
<path fill="#FFFFFF" d="M875.005,39.35c15.775,0,27.962,11.428,27.962,26.534c0,15.126-12.187,26.563-27.962,26.563
	c-15.774,0-27.23-12.557-27.23-26.563C847.774,51.885,859.23,39.35,875.005,39.35"/>
<rect x="854.621" y="123.101" fill="#FFFFFF" width="41.504" height="166.058"/>
<path fill="#FFFFFF" d="M519.204,242.485c-9.777,10.288-22.329,17.611-40.321,17.611c-23.196,0-41.871-14.899-44.654-39.436h126.631
	v-11.416c0-57.795-31.475-90.289-77.865-90.289c-50.143,0-90.263,34.923-90.263,87.167c0,52.235,40.12,87.185,90.263,87.185
	c22.875,0,44.417-7.11,62.393-24.628L519.204,242.485z M477.128,150.064c25.957,0,41.864,15.238,42.227,39.443h-85.126
	C437.355,165.631,452.584,150.064,477.128,150.064"/>
<path fill="#FFFFFF" d="M618.765,169.801c0-12.458,13.141-17.652,24.234-17.652c14.081,0,24.449,5.841,32.396,16.813l26.39-26.372
	c-13.671-17.071-36.32-23.641-57.761-23.641c-33.56,0-66.783,16.596-66.783,53.625c0,63.319,89.595,36.317,89.595,70.566
	c0,13.143-15.562,19.021-27.666,19.021c-17.593,0-28.655-8.591-39.347-20.313l-26.812,26.796
	c16.824,18.257,38.598,24.664,63.744,24.664c33.887,0,71.62-13.834,71.62-53.278C708.375,175.323,618.765,199.542,618.765,169.801"
	/>
<path fill="#FFFFFF" d="M833.569,121.333c-4.799-1.36-9.612-2.384-14.748-2.384c-21.812,0-40.162,11.407-49.156,30.417h-0.672
	v-26.27h-41.504v166.062h41.504v-88.926c0-8.99,5.516-41.858,44.631-41.858c6.018,0,12.015,1.194,18.313,2.693L833.569,121.333z"/>
<path fill="#FFFFFF" d="M928.341,122.27c7.398,0,13.451,6.054,13.451,13.457c0,7.404-6.053,13.433-13.451,13.433
	c-7.408,0-13.433-6.028-13.433-13.433C914.908,128.323,920.933,122.27,928.341,122.27 M928.341,146.785
	c6.118,0,11.067-4.954,11.067-11.059c0-6.114-4.949-11.062-11.067-11.062c-6.108,0-11.049,4.948-11.049,11.062
	C917.292,141.831,922.232,146.785,928.341,146.785 M923.169,127.959h5.925c3.705,0,5.417,1.653,5.417,4.631
	c0,2.662-1.565,3.957-3.657,4.212l3.985,6.508h-2.955l-3.837-6.296h-2.044v6.296h-2.834V127.959z M926.003,134.641h2.044
	c1.73,0,3.658-0.104,3.658-2.182c0-2.062-1.928-2.173-3.658-2.127h-2.044V134.641z"/>
<g>
	<defs>
		<path id="SVGID_17_" d="M71.378,203.257c0,71.029,57.59,128.585,128.582,128.585c71.023,0,128.605-57.556,128.605-128.585
			c0-71.006-57.582-128.583-128.605-128.583C128.968,74.674,71.378,132.251,71.378,203.257"/>
	</defs>
	<clipPath id="SVGID_18_">
		<use xlink:href="#SVGID_17_"  overflow="visible"/>
	</clipPath>
	
		<radialGradient id="SVGID_19_" cx="77.7344" cy="476.2139" r="9.3194" gradientTransform="matrix(9.7845 0 0 -9.7845 -601.7188 4838.9062)" gradientUnits="userSpaceOnUse">
		<stop  offset="0" style="stop-color:#A9E0F6"/>
		<stop  offset="1" style="stop-color:#147BC1"/>
	</radialGradient>
	<rect x="71.378" y="74.674" clip-path="url(#SVGID_18_)" fill="url(#SVGID_19_)" width="257.182" height="257.168"/>
</g>
<g>
	<defs>
		<path id="SVGID_20_" d="M145.685,102.084c-9.915,0.42-19.413,1.73-28.882,3.143c-26.823,22.777-44.155,56.33-45.33,93.988
			c7.586,7.991,17.592,26.043,29.146,36.488c1.527-0.689,3.184-1.267,4.955-1.809c-5.673-6.583-13.589-15.309-14.784-19.315
			c-5.834-19.682,0.916-38.097,15.521-39.549c13.081-1.318,24.303-20.776,33.533-33.556c18.982-26.249,48.138-21.861,46.68-35.008
			c-1.675-7.684-6.224-10.027-12.014-10.027C165.806,96.437,154.322,101.75,145.685,102.084"/>
	</defs>
	<clipPath id="SVGID_21_">
		<use xlink:href="#SVGID_20_"  overflow="visible"/>
	</clipPath>
	
		<radialGradient id="SVGID_22_" cx="77.0552" cy="480.3555" r="9.3251" gradientTransform="matrix(12.0039 0 0 -12.0039 -771.2344 5946.8438)" gradientUnits="userSpaceOnUse">
		<stop  offset="0" style="stop-color:#A4CD39"/>
		<stop  offset="0.9607" style="stop-color:#0F9F49"/>
		<stop  offset="1" style="stop-color:#0F9F49"/>
	</radialGradient>
	<rect x="71.479" y="96.437" clip-path="url(#SVGID_21_)" fill="url(#SVGID_22_)" width="116.503" height="139.261"/>
</g>
<g>
	<defs>
		<path id="SVGID_23_" d="M111.075,232.326c-1.895,0.547-3.742,1.047-5.502,1.568c-1.585,0.426-2.824,1.055-4.955,1.809
			c-4.732,2.095-8.138,5.33-8.938,12.207c-1.441,12.504,10.44,22.298,20.455,25.179c12.688,3.635,13.767-0.625,20.414,8.389
			c4.661,6.289,5.569,17.967,7.941,25.647c1.337,4.297,3.123,8.551,5.284,12.744c9.073,4.219,18.709,7.442,28.785,9.452
			c2.493-14.807,1.372-34.805,4.676-43.442c6.798-17.691,10.623-25.479,1.454-43.737c-20.193-5.715-26.333-7.522-46.672-11.697
			c-4.161-0.847-6.741-1.275-9.068-1.275C121.332,229.169,118.351,230.197,111.075,232.326"/>
	</defs>
	<clipPath id="SVGID_24_">
		<use xlink:href="#SVGID_23_"  overflow="visible"/>
	</clipPath>
	
		<radialGradient id="SVGID_25_" cx="78.4517" cy="484.7275" r="9.3342" gradientTransform="matrix(15.2569 0 0 -15.2569 -1015 7568.8359)" gradientUnits="userSpaceOnUse">
		<stop  offset="0" style="stop-color:#A4CD39"/>
		<stop  offset="0.9607" style="stop-color:#0F9F49"/>
		<stop  offset="1" style="stop-color:#0F9F49"/>
	</radialGradient>
	<rect x="90.239" y="229.169" clip-path="url(#SVGID_24_)" fill="url(#SVGID_25_)" width="99.62" height="100.152"/>
</g>
<g>
	<defs>
		<path id="SVGID_26_" d="M236.13,129.811c-5.961,8.509-26.857,10.841-33.553,20.416c-5.223,7.47,0.167,22.155-4.378,30.627
			c-2.095,3.907-1.128,15.242,1.433,18.947c8.042,11.702,21.406,5.2,31.463,9.403c12.283,5.122,13.68,19.375,23.866,29.779
			c10.187,10.431-13.004,26.491,5.938,64.406c2.022,4.078,4.383,7.056,6.907,9.105c12.814-7.977,24.094-18.132,33.364-29.966
			c2.871-19.15-3.598-25.272,4.495-42.804c4.979-10.809,13.518-29.525,22.737-42.218c-1.553-35.504-17.499-67.272-42.16-89.601
			c-2.312,0.644-5.259,0.755-9.277,0.031c-3.446-0.637-6.554-0.916-9.372-0.916C248.579,107.022,242.911,120.114,236.13,129.811"/>
	</defs>
	<clipPath id="SVGID_27_">
		<use xlink:href="#SVGID_26_"  overflow="visible"/>
	</clipPath>
	
		<radialGradient id="SVGID_28_" cx="78.3301" cy="490.8965" r="9.32" gradientTransform="matrix(20.1667 0 0 -20.1667 -1387.1719 10012.4844)" gradientUnits="userSpaceOnUse">
		<stop  offset="0" style="stop-color:#A4CD39"/>
		<stop  offset="0.9607" style="stop-color:#0F9F49"/>
		<stop  offset="1" style="stop-color:#0F9F49"/>
	</radialGradient>
	<rect x="196.104" y="107.022" clip-path="url(#SVGID_27_)" fill="url(#SVGID_28_)" width="132.298" height="205.473"/>
</g>
<path fill="#1F191A" d="M158.752,174.549c21.882-9.292,45.602-16.737,77.575-19.414c-8.143-19.544-17.136-33.35-27.712-45.997
	c-23.574,1.893-45.093,8.249-63.695,15.937C147.653,139.558,152.819,157.084,158.752,174.549 M260.765,228.432
	c-30.272-0.36-56.694,6.881-74.756,15.762c7.656,16.483,22.793,38.322,28.445,47.314c9.844-3.669,20.421-6.419,28.624-7.701
	c8.209-1.277,19.146-2.485,26.56-2.35C268.297,262.261,266.055,249.322,260.765,228.432 M180.533,233.203
	c24.194-11.123,50.753-16.128,77.494-15.401c-7.297-25.288-11.482-37.018-17.692-52.408c-29.711,1.286-55.056,8.613-78.152,19.555
	C162.183,184.948,170.69,212.306,180.533,233.203 M273.524,111.152c-14.823-2.688-36.458-4.398-52.507-3.432
	c10.942,15.152,18.963,28.35,26.495,47.156c20.302,0.508,47.888,6.564,59.198,11.013
	C299.967,147.889,287.144,125.038,273.524,111.152 M319.663,230.673c-0.916-16.712-3.472-39.034-9.666-54.571
	c-16.418-6.587-38.837-10.708-58.532-10.896c6.076,14.171,13.142,37.852,16.594,53.088
	C282.28,220.003,304.525,224.025,319.663,230.673 M306.108,113.845c-21.158-25.911-69.042-47.95-122.354-44.633
	c11.913,7.854,21.828,19.715,30.519,29.48c13.304-1.219,41.266,0.978,51.781,3.886c-1.791-2.119-3.993-4.215-4.56-5.461
	c-1.494-3.208,2.094-3.896,4.979-2.063c3.648,2.333,7.854,5.121,11.188,8.521C283.843,104.962,299.052,110.172,306.108,113.845
	 M331.636,238.562c-0.605,2.083-4.261,4.17-5.96,3.647c0.247,3.692-0.614,22.031-1.58,29.109c2.545-5.233,7.41-18.224,8.872-23.7
	l2.061-8.064c2.05-6.862,8.699-30.542,2.676-61.696c-6.674-34.621-19.2-46.974-23.582-52.475
	c-11.125-6.048-27.957-11.539-27.957-11.539c15.259,20.652,20.543,30.369,29.667,54.97c5.289,2.748,14.895,8.071,16.084,9.536
	c0.971,1.142,0.981,3.211-2.036,3.167c-2.505-0.021-7.367-2.415-11.133-3.422c4.008,13.401,7.11,38.431,6.878,55.197
	C325.625,233.293,332.239,236.495,331.636,238.562 M312.184,289.503c2.19-2.187,5.471-6.826,6.75-9.53
	c1.275-10.985,1.316-33.521,0.845-40.091c-13.248-5.37-33.725-9.619-48.688-10.724c4.868,17.852,7.302,44.111,7.666,52.662
	C285.932,282.551,304.041,286.218,312.184,289.503 M278.148,319.69c11.596-7.232,22.492-15.539,30.39-25.545
	c-6.801-1.703-22.002-3.768-29.543-3.285C278.995,290.86,278.756,308.926,278.148,319.69 M246.489,334.609
	c5.766-1.845,20.455-8.515,23.512-10.521c0.73-11.846,0.608-25.304,0.122-33.346c-15.441,0-37.197,4.515-49.656,9.737
	C227.699,312.11,237.668,324.944,246.489,334.609 M177.07,324.488c4.317,4.354,21.423,15.682,21.423,15.682
	c11.377,0.49,25.749-0.844,36.013-2.639c-5.657-6.454-19.788-26.458-24.074-33.195C199.489,308.926,185.638,317.373,177.07,324.488
	 M130.324,276.882c10.882,13.952,27.916,31.66,39.767,41.438c11.221-9.015,23.938-17.44,34.516-22.572
	c-9.125-14.154-22.611-34.704-28.259-47.347C156.104,257.377,144.611,264.903,130.324,276.882 M101.397,220.924
	c6.933,19.78,13.634,34.869,22.388,47.318c10.233-8.9,31.222-22.957,47.269-30.653c-5.284-11.36-12.915-32.597-18.234-48.502
	C132.152,199.235,116.716,209.123,101.397,220.924 M84.808,161.548c1.65,11.377,7.111,35.916,12.03,48.371
	c11.681-8.792,38.106-25.103,53.068-31.701c-5.229-19.06-8.751-31.095-11.677-50.33C117.081,137.296,94.722,151.905,84.808,161.548
	 M82.243,121.006c-0.734,5.734,0.03,16.336,1.471,28.993c11.67-10.441,34.217-24.06,53.063-32.369
	c-2.188-14.361-4.505-37.268-4.262-43.365c-17.428,9.56-36.564,28.784-50.583,48.502 M138.964,62.993
	c25.061-10.367,49.453-16.068,77.617-12.216c3.131,0.425,2.874,3.082-0.456,3.112l-3.973,0.107
	c-22.683,0.353-56.049,7.555-73.311,17.331c-0.363,11.509,1.821,29.803,4.136,44.221c15.678-6.598,39.929-13.374,58.345-15.394
	c-10.456-11.113-24.676-21.624-26.376-22.845c-1.7-1.219-2.553-3.3-2.553-5.982c0.244-5.015,4.551-5.639,6.859-5.046
	c7.661-1.497,15.287-3.157,28.27-2.771c54.869-2.4,104.999,28.638,124.129,64.023c48.478,76.655,0.021,182.409-63.446,210.573
	c-27.142,12.049-50.42,17.246-93.331,11.264c-42.99-6.005-78.137-27.018-105.436-71.198c-33.624-54.44-14.695-117.861-9.969-131.153
	C79.712,99.279,112.889,73.986,138.964,62.993 M74.231,157.332c-0.542-8.245-1.204-19.546-1.204-19.546
	c-6.058,13.179-9.682,21.12-11.372,36.503C65.896,166.784,74.231,157.332,74.231,157.332 M162.79,324.452
	c-9.126-6.805-31.702-28.212-41.059-41.118c-3.435,2.021-7.267,7.526-12.246,8.471c-1.953,0.365-6.357,0.903-7.657,0.365
	c-1.297-0.536,0.293-3.283,1.698-5.126c2.435-3.172,5.989-7.309,11.186-11.331c-11.122-16.305-16.408-28.225-23.977-47.88
	c-4.373,2.729-7.547,5.158-11.364,8.188c-1.283,1.013-4.815,1.66-6.531,0.124c-3.111-2.794-3.159-7.713,1.215-10.828
	c1.795-1.278,10.687-7.422,12.762-9.152c-5.471-15.774-10.041-36.498-11.26-47.248c-3.64,3.168-8.766,6.776-10.207,7.757
	c-2.076,0.588-3.461-0.08-4.06-0.177c-2.079,22.304,0.319,46.857,6.953,69.03c11.397,38.126,43.366,74.482,86.51,88.01
	C155.756,332.032,160.719,326.291,162.79,324.452 M185.279,339.727c-4.262-2.438-9.604-6.226-14.589-9.529
	c-2.066,1.827-3.736,4.513-5.386,6.671C171.019,338.814,178.716,338.989,185.279,339.727"/>
</svg>
